<?xml version="1.0" encoding="iso-8859-1"?>
<!-- Generator: Adobe Illustrator 19.0.0, SVG Export Plug-In . SVG Version: 6.00 Build 0)  -->
<svg version="1.1" id="Layer_1" xmlns="http://www.w3.org/2000/svg" xmlns:xlink="http://www.w3.org/1999/xlink" x="0px" y="0px"
	 viewBox="0 0 512.898 512.898" style="enable-background:new 0 0 512.898 512.898;" xml:space="preserve">
<g transform="translate(1 1)">
	<g>
		<g>
			<path d="M88.825,381.204c-9.881,0-17.965,8.084-17.965,17.965s8.084,17.965,17.965,17.965c9.881,0,17.965-8.084,17.965-17.965
				S98.705,381.204,88.825,381.204z"/>
			<path d="M403.211,381.204c-9.881,0-17.965,8.084-17.965,17.965s8.084,17.965,17.965,17.965c9.881,0,17.965-8.084,17.965-17.965
				S413.091,381.204,403.211,381.204z"/>
			<path d="M503.814,234.789l-78.147-86.232c-6.288-6.288-14.372-9.881-22.456-9.881h-47.607h-35.032
				c-14.372,0-25.151,11.677-25.151,25.151v70.727L104.095,51.547c-1.797-1.797-3.593-2.695-6.288-2.695H34.93
				c-5.1,0-8.587,3.221-8.947,8.133c-0.078,0.581-0.087,1.156-0.036,1.72v70.988c0,5.389,3.593,8.982,8.982,8.982
				c9.881,0,17.965,8.084,17.965,17.965c0,9.881-8.084,17.965-17.965,17.965c-9.881,0-17.965-8.084-17.965-17.965
				c0-5.389-3.593-8.982-8.982-8.982c-5.39,0-8.982,3.593-8.982,8.982c0,19.761,16.168,35.93,35.93,35.93s35.93-16.168,35.93-35.93
				c0-16.663-11.496-30.77-26.947-34.785V79.959l212.531,220.403H-1v86.232c0,11.677,9.881,21.558,21.558,21.558h6.024
				c4.289,30.689,30.266,53.895,62.243,53.895c31.977,0,57.954-23.205,62.243-53.895h189.9
				c4.289,30.689,30.266,53.895,62.243,53.895c31.977,0,57.954-23.205,62.243-53.895h23.989c11.677,0,21.558-9.881,22.456-20.66
				v-123.06v-8.982C511.898,247.365,509.203,240.179,503.814,234.789z M403.211,156.642c3.593,0,6.288,0.898,8.982,3.593
				l77.249,86.232H358.298v-89.825H403.211z M56.488,66.818h37.726l201.207,192.225v41.319h-14.372L56.488,66.818z M88.825,444.081
				c-25.151,0-44.912-19.761-44.912-44.912s19.761-44.912,44.912-44.912s44.912,19.761,44.912,44.912
				S113.975,444.081,88.825,444.081z M403.211,444.081c-25.151,0-44.912-19.761-44.912-44.912s19.761-44.912,44.912-44.912
				s44.912,19.761,44.912,44.912S428.361,444.081,403.211,444.081z M489.442,390.186h-23.989
				c-4.289-30.689-30.266-53.895-62.243-53.895c-0.146,0-0.288,0.01-0.434,0.011c-0.155-0.001-0.309-0.011-0.465-0.011
				c-31.439,0-57.488,23.354-61.979,53.895H151.068c-4.022-28.778-27.117-50.964-56.346-53.617c-0.212-0.02-0.427-0.03-0.641-0.048
				c-0.737-0.06-1.474-0.12-2.219-0.155c-1.007-0.048-2.019-0.075-3.038-0.075s-2.031,0.027-3.038,0.075
				c-0.745,0.034-1.482,0.095-2.219,0.155c-0.213,0.018-0.428,0.028-0.641,0.048c-29.229,2.653-52.324,24.839-56.346,53.617h-6.024
				c-1.797,0-3.593-1.796-3.593-3.593v-68.267h260.491h26.947h8.982v-8.982v-53.895v-91.621c0-4.491,3.593-7.186,7.186-7.186h19.761
				v92.519c0,8.084,7.186,15.27,15.27,15.27h137.432v26.947h-44.912c-5.389,0-8.982,3.593-8.982,8.982s3.593,8.982,8.982,8.982
				h44.912v77.249C493.035,388.389,491.239,390.186,489.442,390.186z"/>
		</g>
	</g>
</g>
<g>
</g>
<g>
</g>
<g>
</g>
<g>
</g>
<g>
</g>
<g>
</g>
<g>
</g>
<g>
</g>
<g>
</g>
<g>
</g>
<g>
</g>
<g>
</g>
<g>
</g>
<g>
</g>
<g>
</g>
</svg>
